<svg xmlns="http://www.w3.org/2000/svg" width="94.994" height="164.245" viewBox="0 0 94.994 164.245">
  <defs>
    <style>
      .cls-1 {
        fill: #fff;
      }
    </style>
  </defs>
  <g id="Group_41" data-name="Group 41" transform="translate(-625 -579)">
    <g id="Group_39" data-name="Group 39" transform="translate(625 579)">
      <path id="Path_41" data-name="Path 41" class="cls-1" d="M-94.124,704.628l18.272,18.308c.117-.137.244-.269.36-.408.255-.307.5-.62.735-.935.277-.37.547-.741.8-1.121.214-.319.418-.642.618-.969.24-.394.471-.79.689-1.194.178-.331.349-.665.511-1,.2-.416.39-.834.568-1.256.143-.339.281-.681.408-1.026.162-.43.307-.865.442-1.3.109-.347.214-.7.309-1.048.117-.442.22-.889.315-1.335.075-.355.147-.709.208-1.064.077-.453.133-.9.186-1.359.042-.357.085-.717.111-1.077.034-.454.046-.911.059-1.367.008-.359.018-.719.012-1.079-.008-.458-.04-.915-.071-1.371-.026-.358-.046-.717-.085-1.075-.05-.457-.127-.909-.2-1.361-.059-.355-.109-.709-.182-1.06-.093-.454-.214-.9-.331-1.353-.091-.343-.172-.689-.277-1.03-.137-.453-.307-.895-.471-1.341-.121-.327-.228-.66-.364-.984-.186-.452-.406-.893-.618-1.333-.147-.307-.281-.618-.442-.919-.24-.457-.517-.895-.788-1.339-.168-.273-.319-.554-.5-.822-.317-.479-.673-.937-1.026-1.4-.166-.218-.313-.444-.487-.656a25.824,25.824,0,0,0-1.737-1.925l-.006-.008-8.538-8.649-8.467,8.429A12.34,12.34,0,0,0-94.124,704.628Z" transform="translate(115.214 -678.769)"/>
      <path id="Path_42" data-name="Path 42" class="cls-1" d="M-48.694,697.938l-10.3-10.293c.05.153.089.311.135.467.071.226.133.452.2.681q.273.966.479,1.945c.036.178.081.354.115.531q.23,1.209.36,2.432c.02.2.03.394.048.592q.082.985.1,1.971c0,.224.012.446.01.671,0,.824-.032,1.646-.1,2.466-.008.1-.026.2-.036.3-.071.733-.174,1.46-.3,2.188-.04.23-.083.458-.129.687q-.209,1.063-.495,2.111c-.032.115-.057.23-.091.345-.23.8-.5,1.584-.8,2.361-.079.2-.166.4-.248.606q-.382.93-.83,1.84c-.091.182-.176.365-.269.547-.39.747-.81,1.48-1.268,2.2-.089.139-.186.273-.279.41q-.588.888-1.246,1.737-.218.285-.442.563c-.553.677-1.127,1.343-1.749,1.978-.089.1-.151.172-.22.24l-.652.652-.238.244,0,0-35.817,35.8a12.269,12.269,0,0,0-3.62,8.728,12.26,12.26,0,0,0,3.612,8.73l8.631,8.613,45.484-45.508A26.14,26.14,0,0,0-48.694,697.938Z" transform="translate(106.38 -669.717)"/>
    </g>
    <g id="Group_40" data-name="Group 40" transform="translate(654.703 632.686)">
      <path id="Path_43" data-name="Path 43" class="cls-1" d="M-57.367,756.524l-18.272-18.308c-.117.137-.244.269-.36.408-.255.307-.5.62-.733.937-.279.368-.549.739-.8,1.119-.216.319-.42.642-.62.97-.24.394-.471.79-.689,1.194q-.267.5-.511,1c-.2.416-.39.834-.568,1.256-.143.339-.281.681-.408,1.026-.16.43-.307.866-.442,1.3-.109.347-.214.7-.309,1.048-.117.442-.218.889-.313,1.337-.075.354-.149.707-.21,1.063-.077.453-.133.9-.186,1.359-.042.36-.085.717-.111,1.077-.034.454-.046.911-.057,1.367-.008.359-.02.719-.014,1.081.008.457.04.913.073,1.37.024.359.044.717.083,1.075.053.457.127.909.2,1.361.059.355.109.709.182,1.06.093.455.214.9.333,1.353.089.343.17.689.275,1.03.139.453.307.895.471,1.341.121.329.228.66.364.986.186.45.406.891.618,1.331.147.307.281.618.442.919.242.456.519.9.79,1.339.168.273.317.553.495.822.319.479.673.937,1.026,1.4.166.216.313.442.487.655a25.438,25.438,0,0,0,1.737,1.925l.006.008,8.538,8.651,8.467-8.431A12.34,12.34,0,0,0-57.367,756.524Z" transform="translate(101.568 -671.827)"/>
      <path id="Path_44" data-name="Path 44" class="cls-1" d="M-84.068,787.682l10.293,10.293c-.05-.154-.087-.311-.135-.467-.071-.226-.133-.452-.2-.681q-.273-.967-.479-1.945c-.036-.178-.081-.354-.115-.531q-.23-1.209-.36-2.432c-.02-.2-.03-.394-.046-.592q-.085-.985-.1-1.971c0-.224-.012-.446-.01-.671,0-.824.032-1.646.1-2.466.008-.1.026-.2.036-.3.071-.733.174-1.46.3-2.187.04-.228.083-.459.129-.687.139-.709.3-1.412.5-2.109.03-.115.055-.232.089-.347.23-.8.5-1.582.8-2.361.079-.2.166-.4.248-.606q.382-.93.83-1.838c.091-.184.176-.368.271-.549.388-.747.808-1.48,1.266-2.2.089-.139.188-.273.279-.41q.588-.888,1.246-1.737c.147-.19.293-.378.444-.563.551-.677,1.125-1.341,1.749-1.978.087-.1.149-.172.218-.24l.654-.652.236-.244,0,0L-30,731.419a12.26,12.26,0,0,0,3.62-8.726A12.262,12.262,0,0,0-30,713.961l-8.631-8.613-45.484,45.508A26.142,26.142,0,0,0-84.068,787.682Z" transform="translate(91.675 -705.348)"/>
    </g>
  </g>
</svg>
