<svg xmlns="http://www.w3.org/2000/svg" xmlns:xlink="http://www.w3.org/1999/xlink" width="190.927" height="82.152" viewBox="0 0 190.927 82.152">
  <defs>
    <style>
      .cls-1 {
        fill: #fff;
      }

      .cls-2 {
        fill: url(#linear-gradient);
      }

      .cls-3 {
        fill: url(#linear-gradient-2);
      }
    </style>
    <linearGradient id="linear-gradient" y1="0.5" x2="1" y2="0.5" gradientUnits="objectBoundingBox">
      <stop offset="0" stop-color="#c0bfcb"/>
      <stop offset="1" stop-color="#fff"/>
    </linearGradient>
    <linearGradient id="linear-gradient-2" x1="1" y1="0.5" x2="0" y2="0.5" xlink:href="#linear-gradient"/>
  </defs>
  <g id="Group_52" data-name="Group 52" transform="translate(1)">
    <g id="Group_24" data-name="Group 24" transform="translate(62.577 22.603)">
      <path id="Path_25" data-name="Path 25" class="cls-1" d="M222.085,540.986v-30.72a2.326,2.326,0,0,1,2.283-2.342h4.48a2.167,2.167,0,0,1,1.635.678,2.322,2.322,0,0,1,.662,1.651v30.72a2.2,2.2,0,0,1-.686,1.638,2.254,2.254,0,0,1-1.622.678h-4.468a2.227,2.227,0,0,1-1.61-.653A2.151,2.151,0,0,1,222.085,540.986Z" transform="translate(-222.083 -507.136)"/>
      <path id="Path_26" data-name="Path 26" class="cls-1" d="M270.857,540.948v-30.72a2.361,2.361,0,0,1,.649-1.651,2.12,2.12,0,0,1,1.6-.691H291.46q14.563,0,14.551,13.76t-14.551,13.76H279.929v5.555a2.216,2.216,0,0,1-.662,1.638,2.156,2.156,0,0,1-1.6.679h-4.517a2.309,2.309,0,0,1-2.3-2.33Zm9.072-12.544h8.735a11.075,11.075,0,0,0,6.14-1.4c1.4-.922,2.084-2.714,2.084-5.376s-.686-4.454-2.084-5.376a11.075,11.075,0,0,0-6.14-1.4h-8.735Z" transform="translate(-254.882 -507.111)"/>
      <path id="Path_27" data-name="Path 27" class="cls-1" d="M381.1,543.192a1.256,1.256,0,0,1-1.348-1.114,2.038,2.038,0,0,1,.5-1.2L392.381,525,380.95,510.143a1.971,1.971,0,0,1-.5-1.2c0-.755.437-1.139,1.323-1.139h5.166a5.257,5.257,0,0,1,4.218,2.343l6.589,8.64,6.589-8.589a5.272,5.272,0,0,1,4.218-2.343h5.166c.886,0,1.323.384,1.323,1.139a2.062,2.062,0,0,1-.5,1.2l-11.431,14.861,12.13,15.872a1.848,1.848,0,0,1,.5,1.037,1.306,1.306,0,0,1-.087.563,1.242,1.242,0,0,1-1.248.717H409.29a5.219,5.219,0,0,1-4.193-2.317l-7.338-9.6-7.338,9.6a5.219,5.219,0,0,1-4.193,2.317Z" transform="translate(-328.112 -507.055)"/>
      <path id="Path_28" data-name="Path 28" class="cls-1" d="M526.363,538.093q-4.929,4.417-14.438,4.429t-14.438-4.429q-4.991-4.428-4.991-14.08T497.486,510q4.917-4.416,14.438-4.416T526.363,510q4.929,4.416,4.917,14.016T526.363,538.093Zm-6.576-22.848q-2.5-2.957-7.862-2.957t-7.862,2.957q-2.5,2.957-2.5,8.819c0,3.917.811,6.848,2.5,8.819s4.243,2.944,7.862,2.944,6.24-.986,7.862-2.944,2.433-4.9,2.433-8.819S521.409,517.216,519.787,515.245Z" transform="translate(-403.929 -505.581)"/>
    </g>
    <g id="Group_42" data-name="Group 42" transform="translate(-860 -370)">
      <g id="Group_31" data-name="Group 31" transform="translate(859 370)">
        <g id="Group_27" data-name="Group 27" transform="translate(0 0)">
          <g id="Group_25" data-name="Group 25" transform="translate(15.564 26.893)">
            <path id="Path_29" data-name="Path 29" class="cls-2" d="M109.219,631.93l4.646,4.685,4.6-4.575a6.677,6.677,0,0,0,.01-9.443l-.01-.01-9.337-9.357A13.3,13.3,0,0,0,109.219,631.93Z" transform="translate(-95.931 -581.356)"/>
            <path id="Path_30" data-name="Path 30" class="cls-1" d="M81.237,559.522l9.4,9.4a13.3,13.3,0,0,1-.1-18.7c.034-.034.061-.072.1-.106l10.479-10.479,7.171-7.161a6.687,6.687,0,0,0,.005-9.458l-4.681-4.671-12.1,12.1-10.3,10.308A13.294,13.294,0,0,0,81.237,559.522Z" transform="translate(-77.351 -518.351)"/>
          </g>
          <g id="Group_26" data-name="Group 26" transform="translate(0 0)">
            <path id="Path_31" data-name="Path 31" class="cls-3" d="M67.242,443l-4.635-4.7L58,442.887a6.677,6.677,0,0,0-.01,9.443l.01.01,9.337,9.357A13.3,13.3,0,0,0,67.242,443Z" transform="translate(-47.635 -438.301)"/>
            <path id="Path_32" data-name="Path 32" class="cls-1" d="M60.031,461.685l-9.4-9.4a13.3,13.3,0,0,1,.1,18.7c-.034.034-.061.072-.1.106L40.15,481.566l-7.167,7.157a6.688,6.688,0,0,0-.006,9.458l4.682,4.671,12.095-12.094,10.3-10.308A13.294,13.294,0,0,0,60.031,461.685Z" transform="translate(-31.021 -447.585)"/>
          </g>
        </g>
      </g>
    </g>
  </g>
</svg>
