<svg id="Group_57" data-name="Group 57" xmlns="http://www.w3.org/2000/svg" width="189.928" height="82.152" viewBox="0 0 189.928 82.152">
  <defs>
    <style>
      .cls-1 {
        fill: #fff;
      }
    </style>
  </defs>
  <g id="Group_24" data-name="Group 24" transform="translate(62.577 22.603)">
    <path id="Path_25" data-name="Path 25" class="cls-1" d="M222.085,540.986v-30.72a2.326,2.326,0,0,1,2.283-2.342h4.48a2.167,2.167,0,0,1,1.635.678,2.322,2.322,0,0,1,.662,1.651v30.72a2.2,2.2,0,0,1-.686,1.638,2.254,2.254,0,0,1-1.622.678h-4.468a2.227,2.227,0,0,1-1.61-.653A2.151,2.151,0,0,1,222.085,540.986Z" transform="translate(-222.083 -507.136)"/>
    <path id="Path_26" data-name="Path 26" class="cls-1" d="M270.857,540.948v-30.72a2.361,2.361,0,0,1,.649-1.651,2.12,2.12,0,0,1,1.6-.691H291.46q14.563,0,14.551,13.76t-14.551,13.76H279.929v5.555a2.216,2.216,0,0,1-.662,1.638,2.156,2.156,0,0,1-1.6.679h-4.517a2.309,2.309,0,0,1-2.3-2.33Zm9.072-12.544h8.735a11.075,11.075,0,0,0,6.14-1.4c1.4-.922,2.084-2.714,2.084-5.376s-.686-4.454-2.084-5.376a11.075,11.075,0,0,0-6.14-1.4h-8.735Z" transform="translate(-254.882 -507.111)"/>
    <path id="Path_27" data-name="Path 27" class="cls-1" d="M381.1,543.192a1.256,1.256,0,0,1-1.348-1.114,2.038,2.038,0,0,1,.5-1.2L392.381,525,380.95,510.143a1.971,1.971,0,0,1-.5-1.2c0-.755.437-1.139,1.323-1.139h5.166a5.257,5.257,0,0,1,4.218,2.343l6.589,8.64,6.589-8.589a5.272,5.272,0,0,1,4.218-2.343h5.166c.886,0,1.323.384,1.323,1.139a2.062,2.062,0,0,1-.5,1.2l-11.431,14.861,12.13,15.872a1.848,1.848,0,0,1,.5,1.037,1.306,1.306,0,0,1-.087.563,1.242,1.242,0,0,1-1.248.717H409.29a5.219,5.219,0,0,1-4.193-2.317l-7.338-9.6-7.338,9.6a5.219,5.219,0,0,1-4.193,2.317Z" transform="translate(-328.112 -507.055)"/>
    <path id="Path_28" data-name="Path 28" class="cls-1" d="M526.363,538.093q-4.929,4.417-14.438,4.429t-14.438-4.429q-4.991-4.428-4.991-14.08T497.486,510q4.917-4.416,14.438-4.416T526.363,510q4.929,4.416,4.917,14.016T526.363,538.093Zm-6.576-22.848q-2.5-2.957-7.862-2.957t-7.862,2.957q-2.5,2.957-2.5,8.819c0,3.917.811,6.848,2.5,8.819s4.243,2.944,7.862,2.944,6.24-.986,7.862-2.944,2.433-4.9,2.433-8.819S521.409,517.216,519.787,515.245Z" transform="translate(-403.929 -505.581)"/>
  </g>
  <g id="Group_41" data-name="Group 41" transform="translate(-625 -579)">
    <g id="Group_39" data-name="Group 39" transform="translate(625 579)">
      <path id="Path_41" data-name="Path 41" class="cls-1" d="M-95.921,691.7l9.139,9.157c.059-.069.122-.134.18-.2.127-.154.249-.31.368-.468.138-.185.274-.371.4-.561.107-.16.209-.321.309-.485.12-.2.235-.4.345-.6.089-.166.175-.332.256-.5.1-.208.195-.417.284-.628.072-.17.14-.34.2-.513.081-.215.154-.432.221-.652.055-.174.107-.349.155-.524.059-.221.11-.445.158-.668.037-.178.074-.354.1-.532.038-.226.067-.453.093-.68.021-.179.042-.359.056-.539.017-.227.023-.456.029-.684,0-.18.009-.36.006-.539,0-.229-.02-.458-.035-.686-.013-.179-.023-.359-.042-.538-.025-.228-.064-.455-.1-.681-.029-.178-.055-.355-.091-.531-.046-.227-.107-.452-.166-.677-.045-.172-.086-.344-.138-.515-.069-.226-.154-.448-.235-.671-.061-.164-.114-.33-.182-.492-.093-.226-.2-.446-.309-.667-.074-.154-.14-.309-.221-.46-.12-.228-.259-.448-.394-.67-.084-.136-.16-.277-.249-.411-.159-.239-.336-.469-.513-.7-.083-.109-.157-.222-.243-.328a12.929,12.929,0,0,0-.869-.963l0,0-4.271-4.326-4.235,4.216A6.172,6.172,0,0,0-95.921,691.7Z" transform="translate(106.469 -678.769)"/>
      <path id="Path_42" data-name="Path 42" class="cls-1" d="M-77.526,692.794l-5.15-5.149c.025.077.044.156.068.233.035.113.067.226.1.341q.136.483.239.973c.018.089.04.177.058.266.077.4.136.809.18,1.216.01.1.015.2.024.3q.041.493.051.986c0,.112.006.223.005.335,0,.412-.016.823-.052,1.234,0,.051-.013.1-.018.15-.035.367-.087.73-.15,1.094-.02.115-.041.229-.065.344q-.1.532-.248,1.056c-.016.058-.028.115-.045.173-.115.4-.251.792-.4,1.181-.039.1-.083.2-.124.3q-.191.465-.415.92c-.045.091-.088.183-.134.274-.2.374-.405.74-.634,1.1-.044.07-.093.136-.139.205q-.294.444-.623.869-.109.142-.221.282c-.277.339-.564.672-.875.989-.044.052-.076.086-.11.12l-.326.326-.119.122h0l-17.915,17.9a6.137,6.137,0,0,0-1.811,4.365,6.132,6.132,0,0,0,1.806,4.367l4.317,4.308,22.75-22.762A13.075,13.075,0,0,0-77.526,692.794Z" transform="translate(106.38 -678.678)"/>
    </g>
    <g id="Group_40" data-name="Group 40" transform="translate(639.857 605.853)">
      <path id="Path_43" data-name="Path 43" class="cls-1" d="M-69.666,747.373l-9.139-9.157c-.059.069-.122.134-.18.2-.127.153-.249.31-.367.469-.139.184-.275.37-.4.56-.108.16-.21.321-.31.485-.12.2-.235.4-.345.6q-.133.248-.256.5c-.1.208-.195.417-.284.629-.072.17-.14.34-.2.513-.08.215-.154.433-.221.652-.055.174-.107.349-.155.524-.059.221-.109.444-.157.669-.037.177-.075.354-.105.531-.038.226-.067.453-.093.68-.021.18-.042.359-.056.539-.017.227-.023.456-.028.684,0,.18-.01.36-.007.541,0,.229.02.457.036.685.012.18.022.359.041.537.026.228.064.455.1.681.029.178.055.355.091.53.046.227.107.452.167.677.044.172.085.344.137.515.07.226.154.448.235.671.061.165.114.33.182.493.093.225.2.446.309.666.074.154.14.309.221.46.121.228.26.449.4.67.084.136.159.277.248.411.16.239.336.469.513.7.083.108.157.221.243.327a12.734,12.734,0,0,0,.869.963l0,0,4.271,4.327,4.235-4.217A6.172,6.172,0,0,0-69.666,747.373Z" transform="translate(91.775 -705.009)"/>
      <path id="Path_44" data-name="Path 44" class="cls-1" d="M-87.87,746.53l5.149,5.149c-.025-.077-.043-.156-.068-.234-.035-.113-.067-.226-.1-.34q-.136-.484-.239-.973c-.018-.089-.04-.177-.058-.266q-.115-.6-.18-1.216c-.01-.1-.015-.2-.023-.3q-.042-.493-.052-.986c0-.112-.006-.223-.005-.335,0-.412.016-.823.052-1.234,0-.05.013-.1.018-.149.035-.367.087-.73.15-1.094.02-.114.041-.229.065-.344.07-.355.152-.706.249-1.055.015-.058.027-.116.044-.174.115-.4.251-.791.4-1.181.039-.1.083-.2.124-.3.127-.31.266-.617.415-.919.045-.092.088-.184.135-.275.194-.374.4-.74.633-1.1.044-.07.094-.136.139-.205q.294-.444.623-.869c.074-.095.147-.189.222-.282.276-.339.563-.671.875-.989.043-.052.075-.086.109-.12l.327-.326.118-.122,0,0,17.915-17.906a6.132,6.132,0,0,0,1.81-4.365,6.133,6.133,0,0,0-1.806-4.368l-4.317-4.308-22.75,22.762A13.076,13.076,0,0,0-87.87,746.53Z" transform="translate(91.675 -705.348)"/>
    </g>
  </g>
</svg>
